<?xml version="1.0" encoding="utf-8"?>
<!-- Generator: Adobe Illustrator 25.3.1, SVG Export Plug-In . SVG Version: 6.00 Build 0)  -->
<svg version="1.1" id="图层_1" xmlns="http://www.w3.org/2000/svg" xmlns:xlink="http://www.w3.org/1999/xlink" x="0px" y="0px"
	 viewBox="0 0 512 512" style="enable-background:new 0 0 512 512;" xml:space="preserve">
<style type="text/css">
	.st0{fill:#226699;}
	.st1{fill:#FFFFFF;}
</style>
<path class="st0" d="M512,455.2c0,31.4-25.5,56.9-56.9,56.9H56.9C25.5,512.1,0,486.6,0,455.2V57C0,25.6,25.5,0.1,56.9,0.1h398.2
	C486.5,0.1,512,25.6,512,57V455.2z"/>
<circle class="st1" cx="382.3" cy="99.6" r="42.7"/>
<path class="st1" d="M184.1,185.7l33.7-33.6l54.9,16.5l-37.5,40.5c25.1,9.9,46.7,26.7,62.5,48.1l71.4-71.4c5.3-5.3,7.4-13,5.6-20.3
	c-1.8-7.3-7.4-13.1-14.5-15.2l-142.2-42.7c-7.5-2.3-15.7-0.2-21.2,5.3l-42.7,42.7c-8.3,8.3-8.3,21.8,0,30.2
	C162.3,194.1,175.8,194.1,184.1,185.7z M412.6,256.1c-4.5-5.1-11.2-7.8-17.9-7.2l-96.5,8.8c9,12.3,16.1,26.1,20.8,40.9l50.5-4.6
	l-22.1,99.5c-2.6,11.5,4.7,22.9,16.2,25.4c1.6,0.3,3.1,0.5,4.6,0.5c9.8,0,18.6-6.8,20.8-16.7l28.4-128
	C418.9,268.2,417.1,261.2,412.6,256.1z M183.2,227.6c-62.8,0-113.8,50.9-113.8,113.8s50.9,113.8,113.8,113.8S297,404.2,297,341.3
	S246.1,227.6,183.2,227.6z M183.2,426.7c-47.1,0-85.3-38.2-85.3-85.3s38.2-85.3,85.3-85.3c47.1,0,85.3,38.2,85.3,85.3
	S230.4,426.7,183.2,426.7z"/>
</svg>
